<?xml version="1.0" encoding="utf-8"?>
<svg version="1.1" xmlns:xlink="http://www.w3.org/1999/xlink" width="35px" height="15px" xmlns="http://www.w3.org/2000/svg">
  <g transform="matrix(1 0 0 1 -346 -397 )">
    <path d="M 30.6338383838384 0.644736842105266  L 17.5 10.4210526315789  L 4.36616161616162 0.644736842105263  C 3.39393939393939 -0.0789473684210528  1.83838383838384 -0.0789473684210528  0.866161616161616 0.644736842105263  C -0.106060606060606 1.36842105263158  -0.106060606060606 2.52631578947368  0.866161616161616 3.25  L 15.3964646464646 14.0657894736842  C 15.4848484848485 14.171052631579  15.5909090909091 14.2631578947368  15.7146464646465 14.3552631578947  C 16.209595959596 14.7236842105263  16.8459595959596 14.9078947368421  17.5 14.8947368421053  C 18.1363636363636 14.8947368421053  18.790404040404 14.7236842105263  19.2853535353535 14.3552631578947  C 19.4090909090909 14.2631578947368  19.5151515151515 14.171052631579  19.6035353535354 14.0657894736842  L 34.1338383838384 3.25  C 34.6111111111111 2.89473684210527  34.8585858585859 2.42105263157895  34.8585858585859 1.94736842105263  C 34.8585858585859 1.47368421052632  34.6111111111111 1  34.1338383838384 0.644736842105266  C 33.1616161616162 -0.07894736842105  31.6060606060606 -0.07894736842105  30.6338383838384 0.644736842105266  Z " fill-rule="nonzero" fill="#ffffff" stroke="none" transform="matrix(1 0 0 1 346 397 )" />
  </g>
</svg>